<?xml version="1.0" encoding="UTF-8" standalone="no"?>
<!DOCTYPE svg PUBLIC "-//W3C//DTD SVG 1.1//EN" "http://www.w3.org/Graphics/SVG/1.1/DTD/svg11.dtd">
<!-- Created with Vectornator (http://vectornator.io/) -->
<svg height="100%" stroke-miterlimit="10" style="fill-rule:nonzero;clip-rule:evenodd;stroke-linecap:round;stroke-linejoin:round;" version="1.1" viewBox="0 0 32 32" width="100%" xml:space="preserve" xmlns="http://www.w3.org/2000/svg" xmlns:xlink="http://www.w3.org/1999/xlink">
<defs/>
<g id="Sans-titre">
<path d="M18.25 30C18.25 30.414 18.586 30.75 19 30.75L19 30.75L24 30.75C24.414 30.75 24.75 30.414 24.75 30L24.75 2C24.75 1.586 24.414 1.25 24 1.25L24 1.25L19 1.25C18.586 1.25 18.25 1.586 18.25 2L18.25 2C18.25 3.243 17.243 4.25 16 4.25C14.757 4.25 13.75 3.243 13.75 2L13.75 2C13.75 1.586 13.414 1.25 13 1.25L13 1.25L8 1.25C7.586 1.25 7.25 1.586 7.25 2L7.25 30C7.25 30.414 7.586 30.75 8 30.75L8 30.75L13 30.75C13.414 30.75 13.75 30.414 13.75 30L13.75 30C13.75 28.757 14.757 27.75 16 27.75C17.243 27.75 18.25 28.757 18.25 30L18.25 30ZM12.326 29.25L8.75 29.25L8.75 2.75L12.326 2.75C12.687 4.474 14.195 5.75 16 5.75C17.805 5.75 19.313 4.474 19.67 2.775L19.674 2.751L23.25 2.751L23.25 29.251L19.674 29.251C19.313 27.527 17.805 26.251 16 26.251C14.195 26.251 12.687 27.527 12.33 29.226C12.33 29.226 12.326 29.25 12.326 29.25Z" fill="#36962f" fill-rule="nonzero" opacity="1" stroke="none"/>
</g>
</svg>
